<svg width="180" height="180" viewBox="0 0 180 180" fill="none" xmlns="http://www.w3.org/2000/svg">
  <style>
    @media (prefers-color-scheme: light) {
      .background { fill: black; }
      .foreground { fill: white; }
    }
    @media (prefers-color-scheme: dark) {
      .background { fill: white; }
      .foreground { fill: black; }
    }
  </style>
  <g clip-path="url(#clip0)">
    <rect class="background" width="180" height="180" rx="37" />
    <path class="foreground" d="M90 25C54.1 25 25 54.1 25 90c0 28.7 18.6 53.1 44.4 61.7 3.2.6 4.4-1.4 4.4-3.1 0-1.5-.1-6.6-.1-12-16.3 3-20.5-4-21.8-7.6-.7-1.9-3.9-7.6-6.7-9.1-2.3-1.2-5.5-4.2-.1-4.3 5.1-.1 8.8 4.7 10 6.7 5.9 9.9 15.3 7.1 19.1 5.4.6-4.2 2.3-7.1 4.2-8.7-14.6-1.7-29.8-7.3-29.8-32.4 0-7.2 2.6-13.1 6.7-17.7-.7-1.7-2.9-8.4.6-17.4 0 0 5.5-1.8 18 6.7 5.2-1.5 10.8-2.2 16.4-2.2 5.6 0 11.2.7 16.4 2.2 12.5-8.5 18-6.7 18-6.7 3.5 9 1.3 15.7.6 17.4 4.2 4.6 6.7 10.4 6.7 17.7 0 25.2-15.3 30.7-29.9 32.3 2.4 2 4.4 6 4.4 12.1 0 8.7-.1 15.7-.1 17.9 0 1.7 1.2 3.8 4.4 3.1C130.4 143.1 155 118.7 155 90c0-35.9-29.1-65-65-65z"/>
  </g>
  <defs>
    <clipPath id="clip0">
      <rect width="180" height="180" fill="white" />
    </clipPath>
  </defs>
</svg>